# Blender v2.79 (sub 0) OBJ File: ''
# www.blender.org
mtllib CatWalkChunkCombine.mtl
o CatWalkChunkCombine
v -1.363900 1.544334 -4.860129
v -1.386764 0.494973 -4.903241
v -1.872541 1.536135 -6.192977
v -1.881234 0.494980 -6.198186
v -0.412618 0.494980 -7.631316
v -1.715116 0.494980 -8.116327
v -0.894886 0.494980 -6.918007
v -1.274307 0.494980 -6.641112
v -1.692850 0.494980 -6.945025
v -1.861752 0.494980 -7.418441
v -2.808598 0.494980 -8.228213
v -0.139802 0.494980 -5.814861
v -1.116765 0.494980 -6.435792
v -1.176129 0.494980 -5.927553
v -0.841177 0.494980 -5.308506
v 0.642645 0.494980 -6.765594
v 0.562292 0.494980 -6.176965
v -3.542821 0.494980 -8.283963
v -3.534079 1.522290 -8.278721
v -2.917104 2.228749 -8.294116
v -1.117683 2.238934 -6.529070
v -1.638510 2.612135 -8.053685
v -0.877506 2.667325 -7.524399
v -0.399355 2.712080 -6.570132
v 0.615282 0.494980 -4.711714
v 0.004390 0.494980 -4.498863
v -0.395382 0.494973 -4.614833
v -0.566689 0.494980 -5.045889
v 1.460400 0.494980 -5.028170
v -1.881234 0.310565 -6.198186
v -1.401260 0.344779 -6.510639
v -2.206118 0.215740 -6.606010
v -1.819803 0.215740 -6.814552
v -0.968129 0.225075 -5.178033
v -1.303082 0.215740 -5.797080
v -1.397673 0.073263 -4.906746
v -1.639454 0.215740 -5.552466
v -0.522335 0.215733 -4.484360
v -0.693642 0.215740 -4.915416
v -1.988704 0.215081 -7.287969
v -2.935551 0.215740 -8.097740
v -3.542821 0.328539 -8.283963
v -3.254611 0.215740 -7.922175
v -2.567923 0.078822 -7.060181
v -1.243718 0.351361 -6.305319
v 0.770145 0.494980 -4.384416
v 1.252252 0.494973 -4.269461
v 0.140329 0.494973 -4.031420
v -0.335850 2.244998 -5.023641
v 1.256243 2.243989 -5.005476
v 0.628409 2.492103 -5.120617
v 0.409794 2.774076 -5.803034
v -3.214067 0.403706 -8.373264
v -3.542821 0.328539 -8.283963
v -3.254611 0.215740 -7.922175
v -3.254611 0.215740 -7.922175
v -2.935551 0.215740 -8.097740
v -3.214067 0.403706 -8.373264
v -2.808598 0.494980 -8.228213
v -1.021880 1.549973 -3.946663
v -1.363900 1.544334 -4.860129
v 0.079165 2.248125 -4.242023
v -0.335850 2.244998 -5.023641
v 1.729414 2.851051 -4.976482
v 0.546178 2.473150 -5.087125
v -0.240492 0.494978 -0.727494
v -0.577175 0.494977 -1.745969
v -0.240394 1.822699 -0.779218
v -0.581094 1.723401 -1.834170
v 0.226246 2.434420 -2.060904
v 0.508699 2.575217 -0.872316
v 0.013954 1.896830 0.008358
v 1.041803 3.031926 -3.300222
v 0.856068 2.496230 -1.792677
v 1.093213 0.494975 -3.721166
v 2.163685 0.494974 -4.430914
v 1.786297 0.494973 -5.142612
v 0.302844 0.494974 -3.428399
v 0.963316 0.494978 -1.516552
v 1.878246 0.494978 -2.062018
v 0.613389 0.494977 -2.368456
v 1.560236 0.494977 -2.734127
v 1.997168 0.494977 -3.052613
v 2.170223 0.494978 -2.254982
v -0.803849 0.494974 -2.848903
v -1.030526 0.494973 -3.951839
v -0.801487 1.636687 -2.890417
v 2.458893 0.494976 -3.874196
v 0.000000 0.494980 0.000000
v 0.005305 1.027924 0.003177
v 1.982138 0.494979 -1.842443
v 1.315596 0.494980 -0.860287
v -0.395382 0.494973 -4.614833
v -0.358931 0.494973 -4.300869
v -0.126673 0.494974 -3.203493
v -0.407755 0.494973 -3.640929
v 0.248203 0.494977 -2.177519
v 0.114173 0.494975 -2.855486
v 0.305248 0.494977 -1.746930
v 0.615255 0.494978 -1.288408
v 0.657798 0.494980 -0.430144
v 0.644924 0.494979 -0.708721
v 2.509307 0.494974 -4.628569
v 2.021887 0.494973 -5.298588
v -0.522335 0.215733 -4.484360
v -1.168710 0.215733 -4.320890
v -0.485883 0.051364 -4.170395
v -1.030526 0.051364 -3.951839
v -0.803849 0.215734 -2.848903
v -0.253624 0.215734 -3.073020
v -0.906609 0.051522 -3.348901
v -0.534707 0.051522 -3.510456
v -0.012778 0.328458 -2.725013
v -0.697642 0.328458 -2.332128
v 0.121252 0.341914 -2.047045
v -0.577175 0.341914 -1.745969
v -0.240492 -0.006757 -0.727494
v 0.178297 0.344773 -1.616457
v 0.488304 0.122279 -1.157935
v 0.000000 0.000000 0.000000
v 0.530847 0.129036 -0.299671
v 0.517973 0.344775 -0.578248
v -1.397673 0.073263 -4.906746
vt 1.002200 0.768300
vt 1.230500 0.920300
vt 1.238500 0.765900
vt 1.000900 0.921500
vt 0.594900 0.369800
vt 0.413300 0.375800
vt 0.562300 0.472400
vt 0.592500 0.347900
vt 0.530100 0.328000
vt 0.470500 0.346200
vt 0.317200 0.310100
vt 0.762000 0.364300
vt 0.625000 0.348600
vt 0.670300 0.304500
vt 0.757200 0.292400
vt 0.729500 0.515400
vt 0.781100 0.463100
vt 0.612900 0.764800
vt 0.611600 0.915900
vt 0.616200 0.662200
vt 1.025500 0.666400
vt 0.654600 0.625800
vt 0.831900 0.621000
vt 0.975800 0.617200
vt 0.910200 0.305400
vt 0.929200 0.358800
vt 0.858800 0.285100
vt 0.804400 0.300700
vt 0.963900 0.468800
vt 0.523500 0.212500
vt 0.595500 0.287600
vt 0.588800 0.215200
vt 0.533100 0.267600
vt 0.753400 0.167800
vt 0.673200 0.244200
vt 0.760100 0.232000
vt 0.671100 0.191500
vt 0.807300 0.240400
vt 0.861800 0.224700
vt 0.473400 0.285800
vt 0.320100 0.249800
vt 0.254600 0.201700
vt 0.588800 0.215200
vt 0.254600 0.201700
vt 0.312600 0.204000
vt 0.450700 0.209600
vt 0.627900 0.288300
vt 0.753400 0.167800
vt 0.973400 0.350100
vt 1.021000 0.389900
vt 0.955500 0.287600
vt 1.275100 0.664000
vt 1.175000 0.611800
vt 1.335200 0.640000
vt 1.422400 0.605200
vt 0.920800 1.000000
vt 1.000000 0.906800
vt 0.888200 0.869800
vt 0.888200 0.869800
vt 0.808500 0.984600
vt 0.920800 1.000000
vt 0.761300 0.854000
vt 1.404200 0.662800
vt 1.238500 0.765900
vt 1.400900 0.764200
vt 1.275100 0.664000
vt 1.330600 0.641900
vt 1.422400 0.605200
vt 1.810200 0.704400
vt 1.662300 0.908700
vt 1.816700 0.907700
vt 1.650800 0.723100
vt 1.934400 0.594600
vt 1.691900 0.619700
vt 1.929200 0.690400
vt 1.963900 0.523000
vt 1.667900 0.567900
vt 1.076100 0.495000
vt 1.062500 0.332600
vt 0.976800 0.509800
vt 1.014400 0.264500
vt 1.160000 0.216800
vt 1.286600 0.288500
vt 1.274800 0.184900
vt 1.195800 0.306300
vt 1.290400 0.332700
vt 1.198500 0.374800
vt 1.525800 0.743600
vt 1.399600 0.919500
vt 1.530900 0.914100
vt 1.153700 0.483500
vt 1.927900 0.824600
vt 1.927100 0.906900
vt 1.316300 0.282600
vt 1.364700 0.164100
vt 0.892500 0.265300
vt 0.858800 0.285100
vt 1.018400 0.206800
vt 0.965100 0.170600
vt 1.148400 0.168300
vt 1.069400 0.197700
vt 1.195100 0.141900
vt 1.264300 0.139200
vt 1.352000 0.079300
vt 1.323600 0.098800
vt 0.979800 0.545500
vt 1.083600 0.545100
vt 0.895500 0.205000
vt 0.827500 0.146500
vt 0.861800 0.224700
vt 0.874600 0.133000
vt 0.943400 0.100500
vt 1.021400 0.146500
vt 1.000600 0.073500
vt 0.956500 0.150500
vt 1.151300 0.107900
vt 1.059600 0.045700
vt 1.074300 0.145000
vt 1.126600 0.014100
vt 1.252800 -0.027800
vt 1.198100 0.081500
vt 1.267300 0.078800
vt 1.354900 0.018900
vt 1.343000 -0.057700
vt 1.326500 0.038500
vt 0.753400 0.167800
vt 0.874600 0.133000
vt 1.000600 0.073500
vt 1.126600 0.014100
vt 1.252800 -0.027800
vt 1.343000 -0.057700
vn -0.7761 0.4224 0.4682
vn -0.9355 0.0132 0.3532
vn -0.8119 0.4783 0.3345
vn -0.8682 0.0024 0.4961
vn 0.0000 -1.0000 0.0000
vn 0.2163 -0.9507 -0.2221
vn 0.4502 -0.8478 -0.2803
vn 0.3377 -0.9101 -0.2403
vn 0.4370 -0.7400 -0.5113
vn 0.2604 -0.9611 -0.0919
vn 0.5569 -0.8240 -0.1045
vn 0.4075 -0.8614 -0.3030
vn -0.7571 0.2551 0.6014
vn -0.7821 0.0017 0.6231
vn -0.5518 0.6885 0.4706
vn -0.4920 0.8137 0.3094
vn -0.3171 0.8904 0.3263
vn -0.3623 0.8847 0.2933
vn -0.4801 0.8385 0.2576
vn 0.4089 -0.8980 -0.1625
vn 0.3479 -0.9053 -0.2436
vn -0.4669 -0.6757 0.5704
vn 0.3284 -0.8995 -0.2880
vn -0.5882 -0.7290 0.3501
vn 0.4268 -0.8986 -0.1020
vn -0.3829 -0.9219 0.0577
vn 0.3612 -0.9019 -0.2369
vn 0.4525 -0.8175 -0.3561
vn -0.7344 -0.6644 0.1388
vn 0.5112 -0.7919 -0.3339
vn 0.6304 -0.7347 -0.2506
vn 0.5132 -0.7894 -0.3368
vn 0.2667 -0.8799 -0.3932
vn -0.7821 0.0000 0.6231
vn -0.7410 -0.4206 0.5235
vn -0.4642 -0.7938 0.3930
vn 0.5923 -0.7922 -0.1468
vn -0.4096 0.8591 0.3067
vn -0.1922 0.9210 0.3389
vn 0.1115 0.9305 0.3488
vn 0.3088 0.9099 0.2770
vn 0.1090 -0.9210 -0.3740
vn 0.0904 -0.7778 -0.6220
vn 0.0790 -0.7845 -0.6151
vn -0.2157 -0.8943 -0.3920
vn 0.3889 -0.5292 -0.7541
vn -0.4648 0.8852 0.0201
vn -0.8340 0.4454 0.3255
vn -0.8509 0.4823 0.2082
vn -0.4129 0.8848 0.2157
vn -0.2878 0.9530 0.0947
vn -0.3963 0.9063 -0.1465
vn -0.8865 0.3885 0.2514
vn -0.9660 0.0064 0.2586
vn -0.9496 0.0056 0.3134
vn -0.8915 0.4114 0.1898
vn -0.5679 0.8192 0.0797
vn -0.4758 0.8763 0.0753
vn -0.9102 0.3190 0.2639
vn -0.1316 0.9879 0.0814
vn -0.5080 0.8581 -0.0753
vn -0.8939 0.4219 0.1512
vn -0.9606 0.0038 0.2780
vn -0.9795 0.0047 0.2013
vn -0.9504 0.0096 0.3107
vn -0.9494 0.0038 0.3139
vn 0.5736 -0.8188 -0.0211
vn 0.5537 -0.8238 -0.1214
vn 0.4037 -0.8745 -0.2686
vn 0.6344 -0.7656 -0.1062
vn 0.3832 -0.9215 -0.0630
vn 0.3455 -0.9295 -0.1285
vn 0.3970 -0.9001 -0.1792
vn 0.4438 -0.8809 -0.1642
vn 0.4061 -0.9127 0.0457
vn 0.5402 -0.8202 -0.1879
vn -0.7391 -0.6299 0.2387
vn 0.4357 -0.8293 -0.3498
vn -0.6684 -0.7427 0.0409
vn -0.6215 -0.7389 0.2601
vn 0.4947 -0.8632 -0.1008
vn -0.6515 -0.6890 0.3174
vn 0.4980 -0.8672 0.0034
vn 0.4220 -0.9007 -0.1027
vn -0.6909 -0.6903 0.2149
vn 0.4676 -0.8823 -0.0529
vn -0.7655 -0.6353 0.1016
vn -0.5770 -0.8079 0.1202
vn 0.4402 -0.8491 -0.2917
vn 0.5426 -0.8187 -0.1880
vn 0.3499 -0.8666 -0.3557
vn -0.6526 -0.7242 0.2225
vn 0.6021 -0.7957 -0.0654
vn -0.7877 -0.4583 0.4116
usemtl pskmat0.007
s 1
f 3/1/1 2/2/2 1/3/3
f 2/2/2 3/1/1 4/4/4
f 7/5/5 6/6/5 5/7/5
f 8/8/6 6/6/5 7/5/5
f 9/9/7 6/6/5 8/8/6
f 10/10/8 6/6/5 9/9/7
f 10/10/8 11/11/9 6/6/5
f 12/12/5 8/8/6 7/5/5
f 12/12/5 13/13/10 8/8/6
f 12/12/5 14/14/11 13/13/10
f 15/15/12 14/14/11 12/12/5
f 16/16/5 7/5/5 5/7/5
f 17/17/5 7/5/5 16/16/5
f 17/17/5 12/12/5 7/5/5
f 4/4/4 19/18/13 18/19/14
f 4/4/4 3/1/1 19/18/13
f 3/1/1 20/20/15 19/18/13
f 3/1/1 21/21/16 20/20/15
f 21/21/16 22/22/17 20/20/15
f 21/21/16 23/23/18 22/22/17
f 21/21/16 24/24/19 23/23/18
f 26/25/5 12/12/5 25/26/5
f 27/27/20 12/12/5 26/25/5
f 28/28/21 12/12/5 27/27/20
f 28/28/21 15/15/12 12/12/5
f 25/26/5 17/17/5 29/29/5
f 25/26/5 12/12/5 17/17/5
f 32/30/22 31/31/23 30/32/24
f 32/30/22 33/33/25 31/31/23
f 36/34/26 35/35/27 34/36/28
f 36/34/26 37/37/29 35/35/27
f 36/34/26 39/38/30 38/39/31
f 36/34/26 34/36/28 39/38/30
f 9/9/7 31/31/23 33/33/25
f 31/31/23 9/9/7 8/8/6
f 9/9/7 40/40/32 10/10/8
f 33/33/25 40/40/32 9/9/7
f 40/40/32 11/11/9 10/10/8
f 40/40/32 41/41/33 11/11/9
f 42/42/34 4/43/4 18/44/14
f 42/42/34 30/32/24 4/43/4
f 42/42/34 32/30/22 30/32/24
f 43/45/35 32/30/22 42/42/34
f 43/45/35 44/46/36 32/30/22
f 15/15/12 35/35/27 14/14/11
f 34/36/28 35/35/27 15/15/12
f 45/47/37 14/14/11 35/35/27
f 45/47/37 13/13/10 14/14/11
f 13/13/10 31/31/23 8/8/6
f 45/47/37 31/31/23 13/13/10
f 30/32/24 2/48/2 4/43/4
f 37/37/29 2/48/2 30/32/24
f 37/37/29 36/34/26 2/48/2
f 38/39/31 28/28/21 27/27/20
f 38/39/31 39/38/30 28/28/21
f 34/36/28 28/28/21 39/38/30
f 34/36/28 15/15/12 28/28/21
f 44/46/36 41/41/33 40/40/32
f 43/45/35 41/41/33 44/46/36
f 33/33/25 44/46/36 40/40/32
f 44/46/36 33/33/25 32/30/22
f 31/31/23 37/37/29 30/32/24
f 31/31/23 35/35/27 37/37/29
f 31/31/23 45/47/37 35/35/27
f 29/29/5 46/49/5 25/26/5
f 46/49/5 29/29/5 47/50/5
f 26/25/5 46/49/5 48/51/5
f 26/25/5 25/26/5 46/49/5
f 21/21/16 1/3/3 49/52/38
f 1/3/3 21/21/16 3/1/1
f 52/53/39 51/54/40 50/55/41
f 49/52/38 24/24/19 21/21/16
f 49/52/38 52/53/39 24/24/19
f 49/52/38 51/54/40 52/53/39
f 55/56/42 54/57/42 53/58/42
f 58/59/43 57/60/44 56/61/45
f 57/60/44 58/59/43 59/62/46
f 62/63/47 61/64/48 60/65/49
f 62/63/47 63/66/50 61/64/48
f 65/67/51 62/63/47 64/68/52
f 62/63/47 65/67/51 63/66/50
f 68/69/53 67/70/54 66/71/55
f 68/69/53 69/72/56 67/70/54
f 69/72/56 71/73/57 70/74/58
f 68/69/53 71/73/57 69/72/56
f 68/69/53 72/75/59 71/73/57
f 70/74/58 74/76/60 73/77/61
f 71/73/57 74/76/60 70/74/58
f 47/50/5 76/78/5 75/79/5
f 29/29/5 76/78/5 47/50/5
f 29/29/5 77/80/5 76/78/5
f 78/81/5 46/49/5 75/79/5
f 78/81/5 48/51/5 46/49/5
f 81/82/5 80/83/5 79/84/5
f 81/82/5 82/85/5 80/83/5
f 84/86/5 82/85/5 83/87/5
f 80/83/5 82/85/5 84/86/5
f 87/88/62 86/89/63 85/90/64
f 87/88/62 60/65/49 86/89/63
f 60/65/49 70/74/58 62/63/47
f 87/88/62 70/74/58 60/65/49
f 87/88/62 69/72/56 70/74/58
f 73/77/61 62/63/47 70/74/58
f 73/77/61 64/68/52 62/63/47
f 87/88/62 67/70/54 69/72/56
f 67/70/54 87/88/62 85/90/64
f 81/82/5 75/79/5 82/85/5
f 81/82/5 78/81/5 75/79/5
f 75/79/5 83/87/5 82/85/5
f 76/78/5 83/87/5 75/79/5
f 83/87/5 76/78/5 88/91/5
f 86/89/63 61/64/48 2/2/2
f 86/89/63 60/65/49 61/64/48
f 90/92/65 66/71/55 89/93/66
f 90/92/65 68/69/53 66/71/55
f 90/92/65 72/75/59 68/69/53
f 91/94/5 79/84/5 80/83/5
f 92/95/5 79/84/5 91/94/5
f 80/83/5 84/86/5 91/94/5
f 94/96/67 93/97/68 26/25/5
f 95/98/69 48/51/5 78/81/5
f 95/98/69 94/96/67 48/51/5
f 95/98/69 96/99/70 94/96/67
f 97/100/71 78/81/5 81/82/5
f 98/101/72 78/81/5 97/100/71
f 98/101/72 95/98/69 78/81/5
f 79/84/5 97/100/71 81/82/5
f 79/84/5 99/102/73 97/100/71
f 100/103/74 99/102/73 79/84/5
f 101/104/5 79/84/5 92/95/5
f 102/105/75 79/84/5 101/104/5
f 102/105/75 100/103/74 79/84/5
f 76/78/5 104/106/5 103/107/5
f 76/78/5 77/80/5 104/106/5
f 76/78/5 103/107/5 88/91/5
f 107/108/76 106/109/77 105/110/78
f 108/111/79 106/109/77 107/108/76
f 111/112/80 110/113/81 109/114/82
f 111/112/80 112/115/83 110/113/81
f 115/116/84 114/117/85 113/118/86
f 116/119/87 114/117/85 115/116/84
f 115/116/84 117/120/88 116/119/87
f 118/121/89 117/120/88 115/116/84
f 117/120/88 118/121/89 119/122/90
f 117/120/88 121/123/91 120/124/92
f 122/125/93 117/120/88 119/122/90
f 117/120/88 122/125/93 121/123/91
f 107/108/76 93/97/68 94/96/67
f 107/108/76 105/110/78 93/97/68
f 123/126/94 86/127/63 2/48/2
f 106/109/77 86/127/63 123/126/94
f 106/109/77 108/111/79 86/127/63
f 96/99/70 110/113/81 112/115/83
f 110/113/81 96/99/70 95/98/69
f 112/115/83 94/96/67 96/99/70
f 112/115/83 107/108/76 94/96/67
f 108/111/79 85/128/64 86/127/63
f 111/112/80 85/128/64 108/111/79
f 111/112/80 109/114/82 85/128/64
f 97/100/71 113/118/86 98/101/72
f 115/116/84 113/118/86 97/100/71
f 98/101/72 110/113/81 95/98/69
f 113/118/86 110/113/81 98/101/72
f 109/114/82 67/129/54 85/128/64
f 114/117/85 67/129/54 109/114/82
f 114/117/85 116/119/87 67/129/54
f 119/122/90 99/102/73 100/103/74
f 119/122/90 118/121/89 99/102/73
f 99/102/73 115/116/84 97/100/71
f 118/121/89 115/116/84 99/102/73
f 116/119/87 66/130/55 67/129/54
f 116/119/87 117/120/88 66/130/55
f 102/105/75 119/122/90 100/103/74
f 122/125/93 119/122/90 102/105/75
f 117/120/88 89/131/66 66/130/55
f 117/120/88 120/124/92 89/131/66
f 123/126/94 105/110/78 106/109/77
f 107/108/76 111/112/80 108/111/79
f 107/108/76 112/115/83 111/112/80
f 114/117/85 110/113/81 113/118/86
f 109/114/82 110/113/81 114/117/85
f 46/49/5 47/50/5 75/79/5
f 26/25/5 48/51/5 94/96/67
o Cube
v 715536512.000000 253758544.000000 -350712800.000000
v 715536512.000000 253758544.000000 -350712800.000000
v 715536512.000000 253758544.000000 -350712800.000000
v 715536512.000000 253758544.000000 -350712800.000000
v 715536512.000000 253758544.000000 -350712800.000000
v 715536512.000000 253758544.000000 -350712800.000000
v 715536512.000000 253758544.000000 -350712800.000000
v 715536512.000000 253758544.000000 -350712800.000000
vn 0.0000 0.0000 1.0000
usemtl Material
s off
f 124//95 125//95 126//95 127//95
f 128//95 131//95 130//95 129//95
f 124//95 128//95 129//95 125//95
f 125//95 129//95 130//95 126//95
f 126//95 130//95 131//95 127//95
f 128//95 124//95 127//95 131//95
